<svg xmlns="http://www.w3.org/2000/svg" width="32" height="32" viewBox="0 0 32 32" fill="none">
  <path d="M11.4287 21.9964V9.90492M16.0002 22.0725V16.0002M20.5716 22.0954V12.9525M8.38112 5.3335H23.6192C24.4275 5.3335 25.2027 5.65458 25.7742 6.22612C26.3457 6.79766 26.6668 7.57284 26.6668 8.38112V23.6192C26.6668 24.4275 26.3457 25.2027 25.7742 25.7742C25.2027 26.3457 24.4275 26.6668 23.6192 26.6668H8.38112C7.57284 26.6668 6.79766 26.3457 6.22612 25.7742C5.65458 25.2027 5.3335 24.4275 5.3335 23.6192V8.38112C5.3335 7.57284 5.65458 6.79766 6.22612 6.22612C6.79766 5.65458 7.57284 5.3335 8.38112 5.3335Z" stroke="#7D7D7D" stroke-width="2" stroke-linecap="round" stroke-linejoin="round"/>
</svg>