<svg xmlns="http://www.w3.org/2000/svg" width="32" height="32" viewBox="0 0 32 32" fill="none">
  <path d="M19.9998 9.33333H11.9998M19.9998 14.6667H11.9998M19.9998 20H14.6665M6.6665 4H25.3332V28L23.9572 26.8213C23.4739 26.4071 22.8583 26.1794 22.2218 26.1794C21.5853 26.1794 20.9698 26.4071 20.4865 26.8213L19.1105 28L17.7358 26.8213C17.2524 26.4068 16.6367 26.1789 15.9998 26.1789C15.363 26.1789 14.7472 26.4068 14.2638 26.8213L12.8892 28L11.5132 26.8213C11.0299 26.4071 10.4144 26.1794 9.77784 26.1794C9.14132 26.1794 8.5258 26.4071 8.0425 26.8213L6.6665 28V4Z" stroke="#5599D6" stroke-width="2" stroke-linecap="round" stroke-linejoin="round"/>
</svg>