<svg xmlns="http://www.w3.org/2000/svg" width="32" height="32" viewBox="0 0 32 32" fill="none">
  <path d="M6.66667 6.44444H14.6667C15.4 6.44444 16 5.89444 16 5.22222C16 4.55 15.4 4 14.6667 4H6.66667C5.2 4 4 5.1 4 6.44444V23.5556C4 24.9 5.2 26 6.66667 26H14.6667C15.4 26 16 25.45 16 24.7778C16 24.1056 15.4 23.5556 14.6667 23.5556H6.66667V6.44444Z" fill="#7D7D7D"/>
  <path d="M27.5333 14.9221L23.8133 11.2021C23.7206 11.1068 23.6016 11.0414 23.4714 11.0141C23.3413 10.9869 23.206 10.9992 23.0829 11.0493C22.9597 11.0994 22.8543 11.1851 22.7802 11.2955C22.7061 11.4058 22.6665 11.5358 22.6667 11.6687V14.0554H13.3333C12.6 14.0554 12 14.6554 12 15.3887C12 16.1221 12.6 16.7221 13.3333 16.7221H22.6667V19.1087C22.6667 19.7087 23.3867 20.0021 23.8 19.5754L27.52 15.8554C27.7867 15.6021 27.7867 15.1754 27.5333 14.9221Z" fill="#7D7D7D"/>
</svg>