<svg width="42" height="54" viewBox="0 0 42 54" fill="none" xmlns="http://www.w3.org/2000/svg">
<path fill-rule="evenodd" clip-rule="evenodd" d="M21 0C32.598 0 42 9.40202 42 21C42 31.1603 34.7844 39.6353 25.198 41.5803L21.6524 46.6575C21.5788 46.7633 21.4812 46.8497 21.3676 46.9093C21.254 46.9689 21.128 47 21 47C20.872 47 20.746 46.9689 20.6324 46.9093C20.5188 46.8497 20.4212 46.7633 20.3476 46.6575L16.802 41.5803C7.21557 39.6353 0 31.1603 0 21C0 9.40202 9.40202 0 21 0Z" fill="#51A7F7"/>
<path d="M23 52C23 50.8954 22.1046 50 21 50C19.8954 50 19 50.8954 19 52C19 53.1046 19.8954 54 21 54C22.1046 54 23 53.1046 23 52Z" fill="#51A7F7"/>
<rect x="7" y="12" width="29" height="17" fill="#51A7F6"/>
<path d="M10.8576 25H8.88036L11.8931 16.2727H14.271L17.2795 25H15.3022L13.1162 18.267H13.048L10.8576 25ZM10.734 21.5696H15.4045V23.0099H10.734V21.5696ZM21.5437 25H18.4499V16.2727H21.5692C22.4471 16.2727 23.2028 16.4474 23.8363 16.7969C24.4698 17.1435 24.957 17.642 25.2979 18.2926C25.6417 18.9432 25.8136 19.7216 25.8136 20.6278C25.8136 21.5369 25.6417 22.3182 25.2979 22.9716C24.957 23.625 24.467 24.1264 23.8278 24.4759C23.1914 24.8253 22.43 25 21.5437 25ZM20.2951 23.419H21.467C22.0124 23.419 22.4712 23.3224 22.8434 23.1293C23.2184 22.9332 23.4996 22.6307 23.6871 22.2216C23.8775 21.8097 23.9727 21.2784 23.9727 20.6278C23.9727 19.983 23.8775 19.456 23.6871 19.0469C23.4996 18.6378 23.2198 18.3366 22.8477 18.1435C22.4755 17.9503 22.0167 17.8537 21.4712 17.8537H20.2951V23.419ZM32.0348 18.7827C32.0007 18.4389 31.8544 18.1719 31.5959 17.9815C31.3373 17.7912 30.9865 17.696 30.5433 17.696C30.2422 17.696 29.9879 17.7386 29.7805 17.8239C29.5731 17.9062 29.414 18.0213 29.3032 18.169C29.1953 18.3168 29.1413 18.4844 29.1413 18.6719C29.1356 18.8281 29.1683 18.9645 29.2393 19.081C29.3132 19.1974 29.414 19.2983 29.5419 19.3835C29.6697 19.4659 29.8174 19.5384 29.9851 19.6009C30.1527 19.6605 30.3316 19.7116 30.522 19.7543L31.3061 19.9418C31.6868 20.027 32.0362 20.1406 32.3544 20.2827C32.6726 20.4247 32.9481 20.5994 33.1811 20.8068C33.414 21.0142 33.5944 21.2585 33.7223 21.5398C33.853 21.821 33.9197 22.1435 33.9226 22.5071C33.9197 23.0412 33.7834 23.5043 33.5135 23.8963C33.2464 24.2855 32.8601 24.5881 32.3544 24.804C31.8515 25.017 31.245 25.1236 30.5348 25.1236C29.8302 25.1236 29.2166 25.0156 28.6939 24.7997C28.174 24.5838 27.7677 24.2642 27.4751 23.8409C27.1853 23.4148 27.0334 22.8878 27.0191 22.2599H28.8047C28.8245 22.5526 28.9084 22.7969 29.0561 22.9929C29.2066 23.1861 29.4069 23.3324 29.6569 23.4318C29.9098 23.5284 30.1953 23.5767 30.5135 23.5767C30.826 23.5767 31.0973 23.5312 31.3274 23.4403C31.5603 23.3494 31.7407 23.223 31.8686 23.0611C31.9964 22.8991 32.0603 22.7131 32.0603 22.5028C32.0603 22.3068 32.0021 22.142 31.8856 22.0085C31.772 21.875 31.6044 21.7614 31.3828 21.6676C31.164 21.5739 30.8956 21.4886 30.5774 21.4119L29.6271 21.1733C28.8913 20.9943 28.3103 20.7145 27.8842 20.3338C27.4581 19.9531 27.2464 19.4403 27.2493 18.7955C27.2464 18.267 27.387 17.8054 27.6711 17.4105C27.9581 17.0156 28.3515 16.7074 28.8515 16.4858C29.3515 16.2642 29.9197 16.1534 30.5561 16.1534C31.2038 16.1534 31.7691 16.2642 32.2521 16.4858C32.7379 16.7074 33.1157 17.0156 33.3856 17.4105C33.6555 17.8054 33.7947 18.2628 33.8032 18.7827H32.0348Z" fill="white"/>
</svg>
