<svg xmlns="http://www.w3.org/2000/svg" width="32" height="32" viewBox="0 0 32 32" fill="none">
  <path d="M9.3335 24V22.6667C9.3335 20.8986 10.0359 19.2029 11.2861 17.9526C12.5364 16.7024 14.2321 16 16.0002 16M16.0002 16C17.7683 16 19.464 16.7024 20.7142 17.9526C21.9645 19.2029 22.6668 20.8986 22.6668 22.6667V24M16.0002 16C17.061 16 18.0784 15.5786 18.8286 14.8284C19.5787 14.0783 20.0002 13.0609 20.0002 12C20.0002 10.9391 19.5787 9.92172 18.8286 9.17157C18.0784 8.42143 17.061 8 16.0002 8C14.9393 8 13.9219 8.42143 13.1717 9.17157C12.4216 9.92172 12.0002 10.9391 12.0002 12C12.0002 13.0609 12.4216 14.0783 13.1717 14.8284C13.9219 15.5786 14.9393 16 16.0002 16ZM1.3335 24V22.6667C1.3335 21.6058 1.75492 20.5884 2.50507 19.8382C3.25521 19.0881 4.27263 18.6667 5.3335 18.6667M5.3335 18.6667C6.04074 18.6667 6.71902 18.3857 7.21911 17.8856C7.71921 17.3855 8.00016 16.7072 8.00016 16C8.00016 15.2928 7.71921 14.6145 7.21911 14.1144C6.71902 13.6143 6.04074 13.3333 5.3335 13.3333C4.62625 13.3333 3.94797 13.6143 3.44788 14.1144C2.94778 14.6145 2.66683 15.2928 2.66683 16C2.66683 16.7072 2.94778 17.3855 3.44788 17.8856C3.94797 18.3857 4.62625 18.6667 5.3335 18.6667ZM30.6668 24V22.6667C30.6668 21.6058 30.2454 20.5884 29.4953 19.8382C28.7451 19.0881 27.7277 18.6667 26.6668 18.6667M26.6668 18.6667C27.3741 18.6667 28.0524 18.3857 28.5524 17.8856C29.0525 17.3855 29.3335 16.7072 29.3335 16C29.3335 15.2928 29.0525 14.6145 28.5524 14.1144C28.0524 13.6143 27.3741 13.3333 26.6668 13.3333C25.9596 13.3333 25.2813 13.6143 24.7812 14.1144C24.2811 14.6145 24.0002 15.2928 24.0002 16C24.0002 16.7072 24.2811 17.3855 24.7812 17.8856C25.2813 18.3857 25.9596 18.6667 26.6668 18.6667Z" stroke="#5599D6" stroke-width="2" stroke-linecap="round" stroke-linejoin="round"/>
</svg>