<svg width="9" height="15" viewBox="0 0 9 15" fill="none" xmlns="http://www.w3.org/2000/svg">
<path d="M0.360107 14.6999C0.251755 14.5994 0.164253 14.4786 0.102596 14.3443C0.0409403 14.21 0.00633907 14.0649 0.000766754 13.9173C-0.00480461 13.7696 0.0187626 13.6223 0.0701237 13.4838C0.121486 13.3453 0.199634 13.2182 0.300107 13.1099L5.59061 7.49986L0.300107 1.88986C0.199646 1.78152 0.121508 1.65445 0.0701542 1.51591C0.0187998 1.37737 -0.00476456 1.23008 0.000806808 1.08243C0.00637817 0.934787 0.0409765 0.789684 0.102625 0.655411C0.164274 0.521136 0.251767 0.400319 0.360107 0.299858C0.468448 0.199397 0.595514 0.121259 0.734053 0.0699043C0.872591 0.0185509 1.01989 -0.00501347 1.16753 0.000557899C1.31518 0.00612926 1.46028 0.0407276 1.59456 0.102376C1.72883 0.164024 1.84965 0.251517 1.95011 0.359858L7.95011 6.73486C8.14304 6.94289 8.25024 7.21613 8.25024 7.49986C8.25024 7.78358 8.14304 8.05683 7.95011 8.26486L1.95011 14.6399C1.84965 14.7482 1.72884 14.8357 1.59456 14.8974C1.46029 14.959 1.31518 14.9936 1.16753 14.9992C1.01989 15.0048 0.872587 14.9812 0.734047 14.9298C0.595508 14.8785 0.468441 14.8003 0.360107 14.6999Z" fill="#5599D6"/>
</svg>
