<svg width="124" height="85" viewBox="0 0 124 85" fill="none" xmlns="http://www.w3.org/2000/svg">
<rect width="124" height="85" rx="11" fill="black"/>
<rect x="9.5" y="8.5" width="104" height="68" rx="10.5" fill="black" stroke="white"/>
<path d="M47.0517 64V22.7H62.5097C66.0104 22.7 69.0194 23.2703 71.5367 24.411C74.054 25.5123 75.9814 27.125 77.3187 29.249C78.6954 31.3337 79.3837 33.8707 79.3837 36.86C79.3837 39.7707 78.6954 42.288 77.3187 44.412C75.9814 46.4967 74.054 48.1093 71.5367 49.25C69.0194 50.3907 66.0104 50.961 62.5097 50.961H49.4707L51.4177 48.896V64H47.0517ZM51.4177 49.25L49.4707 47.126H62.3917C66.5217 47.126 69.6487 46.241 71.7727 44.471C73.936 42.6617 75.0177 40.1247 75.0177 36.86C75.0177 33.556 73.936 30.9993 71.7727 29.19C69.6487 27.3807 66.5217 26.476 62.3917 26.476H49.4707L51.4177 24.411V49.25Z" fill="white"/>
</svg>
